<svg width="12" height="16" viewBox="0 0 12 16" fill="none" xmlns="http://www.w3.org/2000/svg">
<path d="M12 6.66663C12 11.3333 6 15.3333 6 15.3333C6 15.3333 0 11.3333 0 6.66663C2.37122e-08 5.07533 0.632141 3.5492 1.75736 2.42399C2.88258 1.29877 4.4087 0.666626 6 0.666626C7.5913 0.666626 9.11742 1.29877 10.2426 2.42399C11.3679 3.5492 12 5.07533 12 6.66663Z" fill="#0F253E"/>
<path d="M6 8.66663C7.10457 8.66663 8 7.7712 8 6.66663C8 5.56206 7.10457 4.66663 6 4.66663C4.89543 4.66663 4 5.56206 4 6.66663C4 7.7712 4.89543 8.66663 6 8.66663Z" fill="white"/>
</svg>
